# xmcd CD database file
#
# Track frame offsets:
#	150
#	20436
#	42708
#	66767
#	83556
#	105855
#	119536
#	150685
#	177989
#
# Disc length: 2620 seconds
#
# Revision: 0
# Processed by: cddbd v1.4PL0 Copyright (c) Steve Scherf et al.
# Submitted via: CDex 1.51
#
DISCID=6c0a3a09
DTITLE=Blues Monsters - When Midnight Comes
DYEAR=2003
DGENRE=Blues
TTITLE0=Who Dat?
TTITLE1=Everybody Gets The Blues
TTITLE2=I Need A Woman (Like You)
TTITLE3=Chumm'in The Blues
TTITLE4=Long And Low
TTITLE5=Access Man
TTITLE6=Las Call (For Love)
TTITLE7=Virgin Wood (instrumental)
TTITLE8=When Midnight Comes
EXTD=YEAR: 2003
EXTT0=
EXTT1=
EXTT2=
EXTT3=
EXTT4=
EXTT5=
EXTT6=
EXTT7=
EXTT8=
PLAYORDER=
